<?xml version="1.0" standalone="no"?>
<!DOCTYPE svg PUBLIC "-//W3C//DTD SVG 20010904//EN"
 "http://www.w3.org/TR/2001/REC-SVG-20010904/DTD/svg10.dtd">
<svg version="1.0" xmlns="http://www.w3.org/2000/svg"
 width="1030.000000pt" height="455.000000pt" viewBox="0 0 1030.000000 455.000000"
 preserveAspectRatio="xMidYMid meet">

<g transform="translate(0.000000,455.000000) scale(0.100000,-0.100000)"
fill="#000000" stroke="none">
<path d="M4353 3167 l-832 -512 -1 -877 c0 -576 3 -878 10 -878 6 0 11 304 12
876 l3 876 819 505 c476 293 826 503 835 500 9 -3 385 -232 836 -510 450 -278
821 -504 824 -502 2 3 2 7 0 9 -9 9 -1649 1017 -1661 1021 -7 3 -388 -226
-845 -508z"/>
<path d="M4270 2050 l0 -330 135 0 136 0 -3 311 -3 311 -24 19 c-20 16 -40 19
-132 19 l-109 0 0 -330z"/>
<path d="M4692 2357 c-22 -23 -22 -29 -22 -330 l0 -307 130 0 130 0 0 330 0
330 -108 0 c-100 0 -110 -2 -130 -23z"/>
<path d="M5062 2269 c4 -159 -18 -149 330 -149 l279 0 24 25 c23 23 25 31 25
130 l0 105 -331 0 -331 0 4 -111z"/>
<path d="M5850 2050 l0 -330 130 0 130 0 0 330 0 330 -130 0 -130 0 0 -330z"/>
<path d="M5109 1984 c-34 -10 -49 -58 -49 -163 l0 -101 331 0 331 0 -4 115
c-2 93 -6 118 -21 132 -16 16 -44 18 -295 20 -152 0 -284 -1 -293 -3z"/>
<path d="M4368 1523 l32 -4 0 -135 c0 -83 4 -134 10 -134 6 0 10 51 10 134 l0
135 38 4 c20 2 1 4 -43 4 -44 0 -65 -2 -47 -4z"/>
<path d="M4960 1390 l0 -140 68 2 67 2 -57 3 -58 4 0 69 0 69 43 4 42 4 -42 1
-43 2 0 55 0 54 58 4 57 3 -67 2 -68 2 0 -140z"/>
<path d="M5580 1390 l0 -140 68 2 67 2 -57 3 -58 4 0 69 0 69 43 4 42 4 -42 1
-43 2 0 55 0 54 58 4 57 3 -67 2 -68 2 0 -140z"/>
<path d="M4644 1385 c0 -77 2 -107 3 -67 2 40 2 103 0 140 -2 37 -3 4 -3 -73z"/>
<path d="M4794 1385 c0 -77 2 -107 3 -67 2 40 2 103 0 140 -2 37 -3 4 -3 -73z"/>
<path d="M5240 1386 c0 -84 4 -136 10 -136 6 0 10 48 10 125 0 69 0 128 1 132
0 4 -4 9 -10 11 -8 3 -11 -40 -11 -132z"/>
<path d="M5420 1385 c0 -83 4 -135 10 -135 6 0 10 52 10 135 0 83 -4 135 -10
135 -6 0 -10 -52 -10 -135z"/>
<path d="M5890 1385 l0 -135 68 2 67 2 -57 3 -58 4 0 129 c0 80 -4 130 -10
130 -6 0 -10 -52 -10 -135z"/>
</g>
</svg>
